<svg width="40" height="40" viewBox="0 0 40 40" fill="none" xmlns="http://www.w3.org/2000/svg">
<g clip-path="url(#clip0_119_2884)">
<rect width="40" height="40" fill="white"/>
<path d="M32.864 9.816L34.144 6.336H40V0H0V40H40V33.68H34.48L32.44 31.28L30.32 33.68H14.64V20.976H9.464L15.936 6.336H22.224L23.744 9.656V6.336H31.56L32.864 9.816ZM28.456 12.12V10.72L28.992 12.12L31.592 19.064H34.16L36.8 12.12L37.304 10.736V19.064H40V8.4H35.48L33.424 13.816L32.88 15.28L32.32 13.816L30.256 8.4H25.736V19.064H28.456V12.12ZM22.6 19.064H25.736L21.04 8.4H17.4L12.68 19.064H15.776L16.576 17.016H21.752L22.552 19.064H22.6ZM18.656 12L19.2 10.68L19.72 12L20.8 14.704H17.52L18.656 12ZM16.8 20.984V31.616H25.736V29.304H19.544V27.456H25.6V25.16H19.544V23.296H25.736V20.984H16.8ZM35.64 31.616H39.2L34.208 26.28L39.2 20.984H35.696L32.496 24.44L29.296 20.984H25.736L30.704 26.32L25.736 31.616H29.176L32.416 28.144L35.616 31.616H35.64ZM36.984 26.264L40 29.336V23.24L36.984 26.264Z" fill="#006FCF"/>
</g>
<defs>
<clipPath id="clip0_119_2884">
<rect width="40" height="40" fill="white"/>
</clipPath>
</defs>
</svg>
