<svg width="48" height="48" viewBox="0 0 48 48" fill="none" xmlns="http://www.w3.org/2000/svg">
<g clip-path="url(#clip0_1131_21384)">
<path fill-rule="evenodd" clip-rule="evenodd" d="M8.59507 10.0768L10.7314 9.85348C11.2807 9.79606 11.7726 10.1948 11.83 10.7441C11.8874 11.2934 11.4886 11.7852 10.9394 11.8426L6.58214 12.2981C6.03284 12.3555 5.54101 11.9567 5.4836 11.4074L5.02819 7.05021C4.97078 6.50091 5.36952 6.00908 5.91882 5.95167C6.46811 5.89426 6.95994 6.29301 7.01735 6.8423L7.20419 8.62986C15.2755 -1.01028 29.6291 -2.32808 39.3226 5.70285C46.3046 11.4874 48.9691 20.5482 46.9382 28.795C46.8061 29.3313 46.2643 29.659 45.7281 29.5269C45.1918 29.3948 44.8641 28.853 44.9962 28.3168C46.8507 20.7864 44.4158 12.5197 38.0466 7.24296C29.1726 -0.109028 16.0188 1.12481 8.66685 9.99881C8.64404 10.0263 8.62007 10.0523 8.59507 10.0768ZM22.9997 9.02865C22.8593 8.94786 22.7091 8.87421 22.549 8.80961C21.5158 8.39283 20.1927 8.40031 18.6059 9.08034C17.5038 9.55269 16.4315 10.0997 15.5434 10.7343C15.0488 11.0076 14.6208 11.3815 14.2851 11.8255C14.261 11.8573 14.2391 11.8901 14.2194 11.9237C14.1997 11.9471 14.1804 11.9705 14.1612 11.9941C13.6564 12.6154 13.3008 13.357 13.289 14.2046C13.2851 14.4895 13.3202 14.7701 13.3914 15.0457C11.4709 15.3387 9.99967 16.9974 9.99967 18.9998C9.99967 19.7136 10.1871 20.3841 10.5147 20.9642C9.08139 21.8178 8.28221 23.518 8.65112 25.2397C8.7705 25.7968 9.00052 26.3018 9.31324 26.7365C8.03231 27.9412 7.65868 29.8966 8.52284 31.5247C9.07828 32.5712 10.0339 33.2703 11.098 33.533C11.1491 33.5457 11.2002 33.5541 11.251 33.5586C11.1256 34.8107 11.5914 36.1021 12.6159 36.9874C13.5123 37.762 14.6561 38.0679 15.7432 37.9278C16.0888 37.8833 16.3704 37.6673 16.5134 37.3764C16.7609 37.728 17.0586 38.053 17.4055 38.3406C19.0312 39.6887 21.2624 39.8231 22.9997 38.8466V39.2498H24.9997V39.2348L26.8298 39.2316C27.7304 39.2301 28.4954 38.5722 28.6317 37.682L29.109 34.5651L31.6569 36.4227C32.3847 36.9532 33.3905 36.874 34.0262 36.2361L36.9099 33.3423C37.5456 32.7044 37.6213 31.6983 37.0882 30.9724L35.2218 28.431L38.3369 27.9428C39.2266 27.8034 39.8819 27.0361 39.8803 26.1355L39.8732 22.0502C39.8716 21.1497 39.2137 20.3847 38.3235 20.2484L35.2066 19.7711L37.0642 17.2232C37.5947 16.4954 37.5155 15.4896 36.8776 14.8539L33.9838 11.9702C33.3459 11.3345 32.3398 11.2588 31.6139 11.7919L29.0725 13.6583L28.5843 10.5432C28.4449 9.65345 27.6776 8.99824 26.7771 8.99981L24.9997 9.00291V8.99976H22.9997V9.02865ZM22.9997 36.2622V11.8654C22.812 11.7572 22.6581 11.5876 22.5714 11.3709C22.4972 11.1853 22.26 10.8496 21.8008 10.6644C21.3908 10.499 20.6886 10.4088 19.5873 10.8393C20.6246 11.4849 21.354 12.5958 21.4627 13.907C21.5083 14.4574 21.099 14.9405 20.5486 14.9861C19.9982 15.0317 19.5151 14.6225 19.4695 14.0721C19.3783 12.9713 18.412 12.1528 17.3112 12.244C17.0558 12.2652 16.8158 12.3332 16.5987 12.4391C16.2335 12.7094 15.9353 12.9822 15.7135 13.2552C15.4058 13.6339 15.2927 13.9549 15.2888 14.2324C15.285 14.5062 15.3856 14.8811 15.7807 15.3751C15.7982 15.3969 15.8147 15.4193 15.8301 15.4422C17.1186 16.1065 17.9997 17.4502 17.9997 18.9998C17.9997 19.552 17.552 19.9998 16.9997 19.9998C16.4474 19.9998 15.9997 19.552 15.9997 18.9998C15.9997 17.8952 15.1042 16.9998 13.9997 16.9998C12.8951 16.9998 11.9997 17.8952 11.9997 18.9998C11.9997 19.592 12.2558 20.1231 12.6666 20.4907C12.9929 20.7828 13.0825 21.2406 12.922 21.6229C12.8598 22.0201 12.5599 22.3568 12.1433 22.446C11.0632 22.6775 10.3753 23.7406 10.6067 24.8207C10.8382 25.9007 11.9013 26.5887 12.9814 26.3573C13.5605 26.2332 14.0261 25.8714 14.2995 25.3928C14.5735 24.9132 15.1843 24.7465 15.6638 25.0204C16.1434 25.2944 16.3101 25.9052 16.0362 26.3848C15.4925 27.3365 14.5589 28.0646 13.4004 28.3129C12.5177 28.502 11.6406 28.3841 10.8804 28.0311C10.0855 28.607 9.81608 29.6953 10.2894 30.5871C10.5671 31.1102 11.0423 31.4592 11.5775 31.5914C11.6981 31.6212 11.8082 31.6717 11.9048 31.7382C11.9954 31.603 12.0953 31.4718 12.2044 31.3455C12.5655 30.9276 13.197 30.8815 13.6149 31.2426C14.0328 31.6037 14.0788 32.2352 13.7177 32.6531C12.9956 33.4889 13.0877 34.7519 13.9235 35.474C14.3716 35.8612 14.9409 36.0147 15.4877 35.9442C15.6029 35.9294 15.7161 35.9348 15.8237 35.9577C15.3614 34.421 15.6528 32.6891 16.7539 31.3613C17.1064 30.9361 17.7368 30.8773 18.162 31.2298C18.5871 31.5823 18.646 32.2128 18.2934 32.6379C17.2511 33.8949 17.4251 35.7588 18.6821 36.8011C19.9391 37.8434 21.803 37.6694 22.8453 36.4124C22.8922 36.3558 22.9441 36.3057 22.9997 36.2622ZM24.9997 17.2581V10.829L26.7802 10.8259L27.2684 13.941C27.4804 15.2935 29.05 15.9404 30.1534 15.1301L32.6948 13.2637L35.5886 16.1474L33.7311 18.6953C32.9246 19.8015 33.5771 21.3689 34.9302 21.5761L38.0471 22.0534L38.0542 26.1387L34.9391 26.6269C33.5866 26.8389 32.9396 28.4085 33.75 29.5119L35.6164 32.0533L32.7327 34.9471L30.1848 33.0896C29.0786 32.2831 27.5112 32.9356 27.304 34.2887L26.8267 37.4056L24.9997 37.4088V31.0467C28.7158 30.9402 31.6955 27.8943 31.6955 24.1524C31.6955 20.4105 28.7158 17.3646 24.9997 17.2581ZM29.8694 24.1524C29.8694 26.8857 27.707 29.1139 24.9997 29.2196V19.0852C27.707 19.1909 29.8694 21.4191 29.8694 24.1524ZM19.2589 32.0143C19.9647 31.1646 19.848 29.9037 18.9983 29.1979C18.5427 28.8195 17.9705 28.6772 17.4252 28.7583C16.8789 28.8396 16.3702 28.4626 16.289 27.9163C16.2077 27.37 16.5847 26.8613 17.131 26.7801C18.2152 26.6189 19.3647 26.9024 20.2761 27.6594C21.9755 29.0709 22.2089 31.5928 20.7975 33.2922C20.4446 33.717 19.8141 33.7754 19.3893 33.4225C18.9644 33.0696 18.906 32.4392 19.2589 32.0143ZM20.0607 19.0406C20.0383 20.145 19.1249 21.0221 18.0206 20.9997C17.4684 20.9885 17.0117 21.427 17.0005 21.9792C16.9893 22.5314 17.4278 22.9881 17.98 22.9993C20.1887 23.0441 22.0155 21.2899 22.0603 19.0812C22.0715 18.529 21.633 18.0723 21.0808 18.0611C20.5286 18.0499 20.0719 18.4885 20.0607 19.0406ZM8.75491 42.4617C18.2653 50.3409 32.2613 49.2213 40.4092 40.0721L40.5542 41.46C40.6117 42.0092 41.1035 42.408 41.6528 42.3506C42.2021 42.2932 42.6008 41.8013 42.5434 41.252L42.088 36.8948C42.0306 36.3455 41.5388 35.9468 40.9895 36.0042L36.6322 36.4596C36.083 36.517 35.6842 37.0089 35.7416 37.5581C35.799 38.1074 36.2909 38.5062 36.8402 38.4488L39.3976 38.1815C32.0431 47.0412 18.8996 48.2692 10.0309 40.9216C3.6617 35.6448 1.22675 27.3782 3.08125 19.8478C3.21332 19.3115 2.88565 18.7697 2.34939 18.6377C1.81312 18.5056 1.27134 18.8333 1.13927 19.3695C-0.891671 27.6164 1.77285 36.6772 8.75491 42.4617Z" fill="#0B86FF"/>
</g>
<defs>
<clipPath id="clip0_1131_21384">
<rect width="48" height="48" fill="white"/>
</clipPath>
</defs>
</svg>
