<svg width="32" height="24" viewBox="0 0 32 24" fill="none" xmlns="http://www.w3.org/2000/svg">
<path fill-rule="evenodd" clip-rule="evenodd" d="M5.73403 0.298115C5.33737 -0.0992673 4.69421 -0.0993024 4.2975 0.298037C3.90079 0.695376 3.90076 1.33963 4.29742 1.73701L14.7521 12.2105L4.71653 22.262C4.31982 22.6593 4.31979 23.3036 4.71646 23.7009C5.11312 24.0983 5.75628 24.0984 6.15299 23.701L16.1885 13.6496L25.8443 23.3228C26.2409 23.7201 26.8841 23.7202 27.2808 23.3228C27.6775 22.9255 27.6775 22.2812 27.2809 21.8839L17.6251 12.2107L27.7022 2.11763C28.0989 1.72029 28.0989 1.07604 27.7023 0.678657C27.3056 0.281274 26.6624 0.28124 26.2657 0.67858L16.1887 10.7716L5.73403 0.298115Z" fill="white"/>
</svg>
