<svg width="24" height="24" viewBox="0 0 24 24" fill="none" xmlns="http://www.w3.org/2000/svg">
<g clip-path="url(#clip0_614_20733)">
<path d="M12 0C9.62663 0 7.30655 0.703788 5.33316 2.02236C3.35977 3.34094 1.8217 5.21509 0.913451 7.4078C0.00519961 9.60051 -0.232441 12.0133 0.230582 14.3411C0.693605 16.6689 1.83649 18.8071 3.51472 20.4853C5.19295 22.1635 7.33115 23.3064 9.65892 23.7694C11.9867 24.2324 14.3995 23.9948 16.5922 23.0866C18.7849 22.1783 20.6591 20.6402 21.9776 18.6668C23.2962 16.6935 24 14.3734 24 12C24 8.8174 22.7357 5.76515 20.4853 3.51472C18.2348 1.26428 15.1826 0 12 0ZM12 22C10.0222 22 8.08879 21.4135 6.4443 20.3147C4.79981 19.2159 3.51809 17.6541 2.76121 15.8268C2.00433 13.9996 1.8063 11.9889 2.19215 10.0491C2.578 8.10929 3.53041 6.32746 4.92894 4.92893C6.32746 3.53041 8.10929 2.578 10.0491 2.19215C11.9889 1.8063 13.9996 2.00433 15.8268 2.7612C17.6541 3.51808 19.2159 4.79981 20.3147 6.4443C21.4135 8.08879 22 10.0222 22 12C22 14.6522 20.9464 17.1957 19.0711 19.0711C17.1957 20.9464 14.6522 22 12 22Z" fill="#88CCBB"/>
<path d="M17.6506 13C17.4468 13.0021 17.2485 13.0665 17.0823 13.1844C16.9161 13.3024 16.7899 13.4683 16.7206 13.66C16.3784 14.639 15.7403 15.4873 14.8947 16.0876C14.049 16.6878 13.0376 17.0103 12.0006 17.0103C10.9635 17.0103 9.95215 16.6878 9.10649 16.0876C8.26083 15.4873 7.62273 14.639 7.28057 13.66C7.21128 13.4683 7.08508 13.3024 6.91887 13.1844C6.75266 13.0665 6.55437 13.0021 6.35057 13C6.18843 13.0005 6.02885 13.0404 5.88556 13.1162C5.74227 13.1921 5.61958 13.3017 5.52806 13.4355C5.43654 13.5694 5.37894 13.7234 5.36021 13.8845C5.34148 14.0455 5.3622 14.2087 5.42057 14.36C5.91104 15.7114 6.8057 16.8789 7.98295 17.704C9.1602 18.5291 10.563 18.9718 12.0006 18.9718C13.4382 18.9718 14.8409 18.5291 16.0182 17.704C17.1954 16.8789 18.0901 15.7114 18.5806 14.36C18.6389 14.2087 18.6597 14.0455 18.6409 13.8845C18.6222 13.7234 18.5646 13.5694 18.4731 13.4355C18.3816 13.3017 18.2589 13.1921 18.1156 13.1162C17.9723 13.0404 17.8127 13.0005 17.6506 13Z" fill="#88CCBB"/>
<path d="M8.5 10C9.32843 10 10 9.32843 10 8.5C10 7.67157 9.32843 7 8.5 7C7.67157 7 7 7.67157 7 8.5C7 9.32843 7.67157 10 8.5 10Z" fill="#88CCBB"/>
<path d="M15.5 10C16.3284 10 17 9.32843 17 8.5C17 7.67157 16.3284 7 15.5 7C14.6716 7 14 7.67157 14 8.5C14 9.32843 14.6716 10 15.5 10Z" fill="#88CCBB"/>
</g>
<defs>
<clipPath id="clip0_614_20733">
<rect width="24" height="24" fill="white"/>
</clipPath>
</defs>
</svg>
