<svg width="640" height="1089" viewBox="0 0 640 1089" fill="none" xmlns="http://www.w3.org/2000/svg">
<g clip-path="url(#clip0_1342_10127)">
<path d="M631.66 1009.64V1078.29H494V941H631.66V1009.64Z" fill="#CEE7FF"/>
<path d="M631.621 990.377V1078.23H542.809C542.809 1029.71 582.568 990.377 631.621 990.377Z" fill="white"/>
<path d="M631.621 1027.46V1078.23H580.298C580.298 1050.19 603.279 1027.46 631.621 1027.46Z" fill="#0B86FF"/>
</g>
<g clip-path="url(#clip1_1342_10127)">
<path d="M91.3005 50.2091H182.601V231.158H0L0 50.2091H91.3005Z" fill="#B6DBFF"/>
<path d="M91.3375 77.2486L43.8379 124.59L91.3374 171.931L138.837 124.59L91.3375 77.2486Z" fill="white"/>
<path d="M118.82 231.222C118.82 216.134 106.548 203.902 91.4092 203.902C76.2704 203.902 63.998 216.134 63.998 231.222C63.998 246.31 76.2704 258.542 91.4092 258.542C106.548 258.542 118.82 246.31 118.82 231.222Z" fill="#0B86FF"/>
<path d="M118.82 322.68C118.82 307.592 106.548 295.36 91.4092 295.36C76.2704 295.36 63.998 307.592 63.998 322.68C63.998 337.768 76.2704 350 91.4092 350C106.548 350 118.82 337.768 118.82 322.68Z" fill="#CEE7FF"/>
</g>
<defs>
<clipPath id="clip0_1342_10127">
<rect width="138" height="138" fill="white" transform="translate(494 941)"/>
</clipPath>
<clipPath id="clip1_1342_10127">
<rect width="183" height="300" fill="white" transform="translate(0 50)"/>
</clipPath>
</defs>
</svg>
