<svg width="1920" height="676" viewBox="0 0 1920 676" fill="none" xmlns="http://www.w3.org/2000/svg">
<g clip-path="url(#clip0_1124_35756)">
<path d="M1911.66 596.645V665.289H1774V528H1911.66V596.645Z" fill="#CEE7FF"/>
<path d="M1911.62 577.377V665.23H1822.81C1822.81 616.706 1862.57 577.377 1911.62 577.377Z" fill="white"/>
<path d="M1911.62 614.46V665.23H1860.3C1860.3 637.193 1883.28 614.46 1911.62 614.46Z" fill="#0B86FF"/>
</g>
<g clip-path="url(#clip1_1124_35756)">
<path d="M91.3005 50.2091H182.601V231.158H0L0 50.2091H91.3005Z" fill="#B6DBFF"/>
<path d="M91.3375 77.2486L43.8379 124.59L91.3374 171.931L138.837 124.59L91.3375 77.2486Z" fill="white"/>
<path d="M118.82 231.222C118.82 216.134 106.548 203.902 91.4092 203.902C76.2704 203.902 63.998 216.134 63.998 231.222C63.998 246.31 76.2704 258.542 91.4092 258.542C106.548 258.542 118.82 246.31 118.82 231.222Z" fill="#0B86FF"/>
<path d="M118.82 322.68C118.82 307.592 106.548 295.36 91.4092 295.36C76.2704 295.36 63.998 307.592 63.998 322.68C63.998 337.768 76.2704 350 91.4092 350C106.548 350 118.82 337.768 118.82 322.68Z" fill="#CEE7FF"/>
</g>
<defs>
<clipPath id="clip0_1124_35756">
<rect width="138" height="138" fill="white" transform="translate(1774 528)"/>
</clipPath>
<clipPath id="clip1_1124_35756">
<rect width="183" height="300" fill="white" transform="translate(0 50)"/>
</clipPath>
</defs>
</svg>
