<svg width="48" height="48" viewBox="0 0 48 48" fill="none" xmlns="http://www.w3.org/2000/svg">
<path fill-rule="evenodd" clip-rule="evenodd" d="M24.5408 5.03626C24.2114 4.8245 23.7886 4.8245 23.4592 5.03626L4.92752 16.9495L23.5039 27.5646C23.8113 27.7402 24.1887 27.7402 24.4961 27.5646L43.0725 16.9495L24.5408 5.03626ZM44 18.723L25.4884 29.3011C24.5661 29.8281 23.4339 29.8281 22.5116 29.3011L4 18.723V42.9998C4 43.5521 4.44772 43.9998 5 43.9998H43C43.5523 43.9998 44 43.5521 44 42.9998V18.723ZM22.3777 3.35391C23.3659 2.71862 24.634 2.71862 25.6223 3.35391L45.5408 16.1586C45.827 16.3426 46 16.6596 46 16.9998V42.9998C46 44.6567 44.6569 45.9998 43 45.9998H5C3.34315 45.9998 2 44.6567 2 42.9998V16.9998C2 16.6596 2.17302 16.3426 2.45924 16.1586L22.3777 3.35391Z" fill="#0B86FF"/>
</svg>
