<svg width="24" height="24" viewBox="0 0 24 24" fill="none" xmlns="http://www.w3.org/2000/svg">
<g clip-path="url(#clip0_614_20931)">
<path d="M12 0C9.62663 0 7.30655 0.703788 5.33316 2.02236C3.35977 3.34094 1.8217 5.21509 0.913451 7.4078C0.00519973 9.60051 -0.232441 12.0133 0.230582 14.3411C0.693605 16.6689 1.83649 18.8071 3.51472 20.4853C5.19295 22.1635 7.33115 23.3064 9.65892 23.7694C11.9867 24.2324 14.3995 23.9948 16.5922 23.0866C18.7849 22.1783 20.6591 20.6402 21.9776 18.6668C23.2962 16.6935 24 14.3734 24 12C24 8.8174 22.7357 5.76515 20.4853 3.51472C18.2348 1.26428 15.1826 0 12 0ZM12 22C10.0222 22 8.08879 21.4135 6.4443 20.3147C4.79981 19.2159 3.51809 17.6541 2.76121 15.8268C2.00433 13.9996 1.8063 11.9889 2.19215 10.0491C2.578 8.10929 3.53041 6.32746 4.92894 4.92893C6.32746 3.53041 8.10929 2.578 10.0491 2.19215C11.9889 1.8063 13.9996 2.00433 15.8268 2.7612C17.6541 3.51808 19.2159 4.79981 20.3147 6.4443C21.4135 8.08879 22 10.0222 22 12C22 14.6522 20.9464 17.1957 19.0711 19.0711C17.1957 20.9464 14.6522 22 12 22Z" fill="#C27777"/>
<path d="M6.84757 17.9788C7.02071 17.9786 7.18964 17.9264 7.33169 17.8295C7.47374 17.7325 7.58215 17.5953 7.64242 17.4362C7.94024 16.6237 8.48849 15.9223 9.21121 15.4288C9.93402 14.9354 10.7956 14.6744 11.6765 14.6821C12.5576 14.6898 13.4144 14.9657 14.1285 15.4717C14.8425 15.9777 15.3784 16.6887 15.662 17.5062C15.7195 17.6663 15.8255 17.8054 15.9658 17.9049C16.1061 18.0042 16.2741 18.0593 16.4472 18.0626C16.585 18.0634 16.7208 18.0313 16.8431 17.9693C16.9654 17.9072 17.0704 17.8168 17.1492 17.7061C17.2279 17.5953 17.2779 17.4675 17.295 17.3336C17.3121 17.1997 17.2957 17.0637 17.2472 16.9373C16.8403 15.8086 16.0888 14.83 15.0947 14.1343C14.1006 13.4387 12.9121 13.0597 11.6908 13.0491C10.4695 13.0384 9.27465 13.3966 8.26851 14.0748C7.26245 14.7529 6.4939 15.7183 6.06739 16.8397C6.01676 16.9652 5.99791 17.1009 6.01271 17.2351C6.02742 17.3694 6.07524 17.498 6.15199 17.6102C6.22875 17.7222 6.33219 17.8144 6.45338 17.8786C6.57457 17.9428 6.70986 17.9772 6.84757 17.9788Z" fill="#C27777"/>
<path d="M8.5 10C9.32843 10 10 9.32843 10 8.5C10 7.67157 9.32843 7 8.5 7C7.67157 7 7 7.67157 7 8.5C7 9.32843 7.67157 10 8.5 10Z" fill="#C27777"/>
<path d="M15.5 10C16.3284 10 17 9.32843 17 8.5C17 7.67157 16.3284 7 15.5 7C14.6716 7 14 7.67157 14 8.5C14 9.32843 14.6716 10 15.5 10Z" fill="#C27777"/>
</g>
<defs>
<clipPath id="clip0_614_20931">
<rect width="24" height="24" fill="white"/>
</clipPath>
</defs>
</svg>
