<svg width="48" height="48" viewBox="0 0 48 48" fill="none" xmlns="http://www.w3.org/2000/svg">
<path d="M20.4204 14.5264H7.78886C6.62615 14.5264 5.68359 15.4689 5.68359 16.6316V38.7369M40.4204 38.7369V24.0001" stroke="#0B86FF" stroke-width="2" stroke-linecap="round" stroke-linejoin="round"/>
<path d="M18.8418 33.4739V20.8423L30.9471 27.1581L18.8418 33.4739Z" stroke="#0B86FF" stroke-width="2" stroke-linejoin="round"/>
<path d="M44.1053 39.7896H2V40.8422C2 42.5862 3.41384 44.0001 5.1579 44.0001H40.9474C42.6914 44.0001 44.1053 42.5862 44.1053 40.8422V39.7896Z" stroke="#0B86FF" stroke-width="2"/>
<path fill-rule="evenodd" clip-rule="evenodd" d="M36.2569 3.18077C36.0167 3.01262 35.7147 2.95837 35.431 3.03239L23.3257 6.19028C22.9586 6.28607 22.6772 6.58142 22.5994 6.95281C22.5216 7.32421 22.6607 7.70765 22.9585 7.94278L26.1982 10.5004L25.2348 14.8358C25.1756 15.1019 25.2277 15.3807 25.3789 15.6075C26.2102 16.8544 28.7721 19.3364 32.8361 20.2395C37.0527 21.1765 40.4369 19.0832 41.6549 17.8651C41.8425 17.6776 41.9478 17.4232 41.9478 17.158V13.6532L46.4897 12.3284C46.859 12.2207 47.1338 11.9107 47.1964 11.5312C47.259 11.1516 47.0983 10.7698 46.7832 10.5492L36.2569 3.18077ZM39.9478 14.2365L33.8582 16.0126C33.5476 16.1032 33.2124 16.038 32.9585 15.8375L27.9412 11.8765L27.2866 14.8223C28.0994 15.81 30.1392 17.5914 33.27 18.2871C36.3209 18.9651 38.8438 17.6315 39.9478 16.7158V14.2365ZM33.7931 13.9483L25.7751 7.61825L35.4886 5.08429L43.9284 10.9921L33.7931 13.9483Z" fill="#0B86FF"/>
</svg>
