<svg width="48" height="48" viewBox="0 0 48 48" fill="none" xmlns="http://www.w3.org/2000/svg">
<path fill-rule="evenodd" clip-rule="evenodd" d="M12.6595 7.09474C9.80751 9.74243 8 13.6727 8 18.8242C8 20.8568 8.66648 23.1681 9.79081 25.6008C10.9106 28.0236 12.4548 30.5036 14.1397 32.8562C17.5098 37.5616 21.384 41.6759 23.3734 43.6901C23.7281 44.0492 24.2719 44.0492 24.6266 43.6901C26.616 41.6759 30.4902 37.5616 33.8603 32.8562C35.5452 30.5036 37.0894 28.0236 38.2092 25.6008C39.3335 23.1681 40 20.8568 40 18.8242C40 13.6727 38.1925 9.74243 35.3405 7.09474C32.4774 4.43679 28.4836 3 24 3C19.5164 3 15.5226 4.43679 12.6595 7.09474ZM11.2988 5.62899C14.5885 2.57498 19.0948 1 24 1C28.9052 1 33.4115 2.57498 36.7012 5.62899C40.0019 8.69325 42 13.1751 42 18.8242C42 21.2624 41.2102 23.8748 40.0247 26.4398C38.8346 29.0147 37.2154 31.6065 35.4863 34.0207C32.0283 38.8489 28.0716 43.0482 26.0495 45.0955C24.9119 46.2474 23.0881 46.2474 21.9505 45.0955C19.9284 43.0482 15.9717 38.8489 12.5137 34.0207C10.7846 31.6065 9.16538 29.0147 7.97534 26.4398C6.78984 23.8748 6 21.2624 6 18.8242C6 13.1751 7.99807 8.69325 11.2988 5.62899Z" fill="#0B86FF"/>
<path fill-rule="evenodd" clip-rule="evenodd" d="M24.0006 10.2856C20.5291 10.2856 17.7148 13.0999 17.7148 16.5714C17.7148 20.0429 20.5291 22.8571 24.0006 22.8571C27.4721 22.8571 30.2863 20.0429 30.2863 16.5714C30.2863 13.0999 27.4721 10.2856 24.0006 10.2856ZM15.7148 16.5714C15.7148 11.9953 19.4245 8.28564 24.0006 8.28564C28.5766 8.28564 32.2863 11.9953 32.2863 16.5714C32.2863 21.1474 28.5766 24.8571 24.0006 24.8571C19.4245 24.8571 15.7148 21.1474 15.7148 16.5714Z" fill="#0B86FF"/>
</svg>
