<svg width="65" height="40" viewBox="0 0 65 40" fill="none" xmlns="http://www.w3.org/2000/svg">
<g clip-path="url(#clip0_119_2886)">
<g clip-path="url(#clip1_119_2886)">
<path d="M63.6543 32.1731V31.4019H63.4535L63.2211 31.9311L62.9901 31.4019H62.7886V32.1731H62.9313V31.5921L63.1485 32.0934H63.2963L63.5136 31.5908V32.1731H63.655H63.6543ZM62.3802 32.1731V31.5339H62.6373V31.4038H61.9805V31.5339H62.2375V32.1731H62.3789H62.3802Z" fill="#F79410"/>
<path d="M40.829 35.4805H23.4492V4.24658H40.8293L40.829 35.4805Z" fill="#FF5F00"/>
<path d="M24.5501 19.8641C24.5501 13.5283 27.5167 7.88434 32.1362 4.24713C28.6395 1.48989 24.3145 -0.00655806 19.8615 2.1605e-05C8.89203 2.1605e-05 0 8.89333 0 19.8641C0 30.8348 8.89203 39.7281 19.8615 39.7281C24.3146 39.7348 28.6397 38.2383 32.1366 35.481C27.5173 31.8445 24.5501 26.2002 24.5501 19.8641Z" fill="#EB001B"/>
<path d="M64.2749 19.8641C64.2749 30.8348 55.3829 39.7281 44.4134 39.7281C39.9598 39.7347 35.6342 38.2383 32.1367 35.481C36.7575 31.8438 39.7241 26.2002 39.7241 19.8641C39.7241 13.528 36.7575 7.88434 32.1367 4.24713C35.6341 1.48997 39.9596 -0.00644273 44.4131 2.08514e-05C55.3825 2.08514e-05 64.2746 8.89333 64.2746 19.8641" fill="#F79E1B"/>
</g>
</g>
<defs>
<clipPath id="clip0_119_2886">
<rect width="65" height="40" fill="white"/>
</clipPath>
<clipPath id="clip1_119_2886">
<rect width="65" height="40" fill="white"/>
</clipPath>
</defs>
</svg>
