<svg width="32" height="24" viewBox="0 0 32 24" fill="none" xmlns="http://www.w3.org/2000/svg">
<path fill-rule="evenodd" clip-rule="evenodd" d="M0 4C0 3.44772 0.447715 3 1 3H31C31.5523 3 32 3.44772 32 4C32 4.55228 31.5523 5 31 5H1C0.447715 5 0 4.55228 0 4ZM16 12C16 11.4477 16.4477 11 17 11H31C31.5523 11 32 11.4477 32 12C32 12.5523 31.5523 13 31 13H17C16.4477 13 16 12.5523 16 12ZM1 19C0.447715 19 0 19.4477 0 20C0 20.5523 0.447715 21 1 21H31C31.5523 21 32 20.5523 32 20C32 19.4477 31.5523 19 31 19H1Z" fill="#2C2F32"/>
</svg>
