<svg width="20" height="20" viewBox="0 0 20 20" fill="none" xmlns="http://www.w3.org/2000/svg">
<path opacity="0.2" d="M19.5 10.25C19.5 5.14137 15.3586 1 10.25 1C5.14137 1 1 5.14137 1 10.25C1 15.3586 5.14137 19.5 10.25 19.5C15.3586 19.5 19.5 15.3586 19.5 10.25Z" fill="#AFADBD"/>
<path fill-rule="evenodd" clip-rule="evenodd" d="M13.7803 6.71967C14.0732 7.01256 14.0732 7.48744 13.7803 7.78033L7.78033 13.7803C7.48744 14.0732 7.01256 14.0732 6.71967 13.7803C6.42678 13.4874 6.42678 13.0126 6.71967 12.7197L12.7197 6.71967C13.0126 6.42678 13.4874 6.42678 13.7803 6.71967Z" fill="#AFADBD"/>
<path fill-rule="evenodd" clip-rule="evenodd" d="M6.71967 6.71967C7.01256 6.42678 7.48744 6.42678 7.78033 6.71967L13.7803 12.7197C14.0732 13.0126 14.0732 13.4874 13.7803 13.7803C13.4874 14.0732 13.0126 14.0732 12.7197 13.7803L6.71967 7.78033C6.42678 7.48744 6.42678 7.01256 6.71967 6.71967Z" fill="#AFADBD"/>
</svg>
