<svg width="48" height="48" viewBox="0 0 48 48" fill="none" xmlns="http://www.w3.org/2000/svg">
<path fill-rule="evenodd" clip-rule="evenodd" d="M11 5C11 3.34315 12.3431 2 14 2H35C36.6569 2 38 3.34315 38 5V42.6667C38 44.3235 36.6569 45.6667 35 45.6667H14C12.3431 45.6667 11 44.3235 11 42.6667V5ZM14 4C13.4477 4 13 4.44772 13 5V42.6667C13 43.219 13.4477 43.6667 14 43.6667H35C35.5523 43.6667 36 43.219 36 42.6667V5C36 4.44772 35.5523 4 35 4H14Z" fill="#0B86FF"/>
<path fill-rule="evenodd" clip-rule="evenodd" d="M20.375 39.4165C20.375 38.8642 20.8227 38.4165 21.375 38.4165H27.625C28.1773 38.4165 28.625 38.8642 28.625 39.4165C28.625 39.9688 28.1773 40.4165 27.625 40.4165H21.375C20.8227 40.4165 20.375 39.9688 20.375 39.4165Z" fill="#0B86FF"/>
<path fill-rule="evenodd" clip-rule="evenodd" d="M17 3C17 2.44772 17.4477 2 18 2H31C31.5523 2 32 2.44772 32 3V5C32 6.65685 30.6569 8 29 8H20C18.3431 8 17 6.65685 17 5V3ZM19 4V5C19 5.55228 19.4477 6 20 6H29C29.5523 6 30 5.55228 30 5V4H19Z" fill="#0B86FF"/>
</svg>
