<svg width="48" height="48" viewBox="0 0 48 48" fill="none" xmlns="http://www.w3.org/2000/svg">
<g clip-path="url(#clip0_1131_21676)">
<path d="M40.181 38.804C32.4767 48.1033 18.6925 49.3962 9.39322 41.6919C2.71761 36.1612 0.167871 27.4975 2.1106 19.6089" stroke="#0B86FF" stroke-width="2" stroke-linecap="round"/>
<path d="M7.89712 9.36107C15.6015 0.0617808 29.3856 -1.23119 38.6849 6.47315C45.3605 12.0038 47.9103 20.6675 45.9675 28.5561" stroke="#0B86FF" stroke-width="2" stroke-linecap="round"/>
<path d="M36.7365 37.4544L41.0938 36.999L41.5492 41.3562" stroke="#0B86FF" stroke-width="2" stroke-linecap="round" stroke-linejoin="round"/>
<path d="M10.8357 10.8483L6.47852 11.3037L6.0231 6.94649" stroke="#0B86FF" stroke-width="2" stroke-linecap="round" stroke-linejoin="round"/>
<path d="M36 24C36 17.3726 30.6274 12 24 12C17.3726 12 12 17.3726 12 24C12 30.6274 17.3726 36 24 36C30.6274 36 36 30.6274 36 24Z" stroke="#0B86FF" stroke-width="2"/>
<path d="M19 24.5L22.5714 28L29 21" stroke="#0B86FF" stroke-width="2" stroke-linecap="round" stroke-linejoin="round"/>
</g>
<defs>
<clipPath id="clip0_1131_21676">
<rect width="48" height="48" fill="white"/>
</clipPath>
</defs>
</svg>
